# xmcd
#
# Track frame offsets: 
#        150
#        14085
#        26482
#        40791
#        51659
#        66093
#        77915
#        91497
#        103186
#        117350
#
# Disc length: 1721 seconds
#
# Revision: 0
# Processed by: cddbd v1.5.2PL0 Copyright (c) Steve Scherf et al.
# Submitted via: ExactAudioCopy v1.3
#
DISCID=8906b70a
DTITLE=Lacy J. Dalton - 16th Avenue
DYEAR=1982
DGENRE=Country
TTITLE0=16Th Avenue
TTITLE1=Rained On
TTITLE2=Blue Eyed Blues
TTITLE3=You Can't Take The Texas Out Of Me
TTITLE4=One Of The Unsatisfied
TTITLE5=Jamaica
TTITLE6=Heartbeat
TTITLE7=Slow Down
TTITLE8=Love It Away
TTITLE9=Imagine That
EXTD=
EXTT0=
EXTT1=
EXTT2=
EXTT3=
EXTT4=
EXTT5=
EXTT6=
EXTT7=
EXTT8=
EXTT9=
PLAYORDER=
